<svg id="Capa_1" data-name="Capa 1" xmlns="http://www.w3.org/2000/svg" viewBox="0 0 713.91 161.43"><defs><style>.cls-1{fill:#ffd600;}</style></defs><title>mesa-redonda-logo-primary</title><path class="cls-1" d="M208.84,69.81l-7.35-29.19V72.24a5.76,5.76,0,0,1-1.17,3.94,4.31,4.31,0,0,1-6.17,0,5.72,5.72,0,0,1-1.19-4V36c0-2,.52-3.34,1.57-4a7.43,7.43,0,0,1,4.21-1.05h2.88a11,11,0,0,1,3.76.47,3.13,3.13,0,0,1,1.74,1.69,26.57,26.57,0,0,1,1.28,4l6.66,25.09L221.71,37a26.57,26.57,0,0,1,1.28-4,3.16,3.16,0,0,1,1.74-1.69,11,11,0,0,1,3.76-.47h2.88A7.47,7.47,0,0,1,235.59,32c1,.7,1.56,2,1.56,4V72.24A5.76,5.76,0,0,1,236,76.18a4,4,0,0,1-3.14,1.31,3.88,3.88,0,0,1-3-1.31,5.66,5.66,0,0,1-1.19-3.94V40.62l-7.34,29.19c-.48,1.89-.87,3.28-1.18,4.17a5.79,5.79,0,0,1-1.67,2.42,4.86,4.86,0,0,1-3.37,1.09,4.92,4.92,0,0,1-4.5-2.5,9.9,9.9,0,0,1-1-2.42C209.33,71.69,209.09,70.77,208.84,69.81Z" transform="translate(0.26 -4.21)"/><path class="cls-1" d="M276.87,38.06H256V49.31h19.25a4.54,4.54,0,0,1,3.17.95,3.24,3.24,0,0,1,1.05,2.52,3.33,3.33,0,0,1-1,2.54,4.47,4.47,0,0,1-3.19,1H256v13h21.63a4.75,4.75,0,0,1,3.29,1A3.5,3.5,0,0,1,282,73.06a3.42,3.42,0,0,1-1.11,2.64,4.75,4.75,0,0,1-3.29,1H252.37c-2,0-3.48-.44-4.36-1.34A6,6,0,0,1,246.68,71V36.59a7.67,7.67,0,0,1,.6-3.27,3.65,3.65,0,0,1,1.85-1.84,7.8,7.8,0,0,1,3.24-.58h24.5a4.8,4.8,0,0,1,3.3,1,3.68,3.68,0,0,1,0,5.19A4.75,4.75,0,0,1,276.87,38.06Z" transform="translate(0.26 -4.21)"/><path class="cls-1" d="M324.18,63A13.45,13.45,0,0,1,322,70.43a14.21,14.21,0,0,1-6.26,5.19A23.52,23.52,0,0,1,306,77.49a22,22,0,0,1-11.18-2.56A14.85,14.85,0,0,1,289.73,70a11.19,11.19,0,0,1-2-6,4,4,0,0,1,1.17-2.9,4,4,0,0,1,3-1.2,3.53,3.53,0,0,1,2.49.94,7.41,7.41,0,0,1,1.73,2.78A18.27,18.27,0,0,0,298,67.31a7.71,7.71,0,0,0,2.86,2.42,10.63,10.63,0,0,0,4.84,1,11,11,0,0,0,6.71-1.92A5.78,5.78,0,0,0,315,64a5.06,5.06,0,0,0-1.4-3.7A8.87,8.87,0,0,0,310,58.09q-2.21-.75-5.89-1.6a43.38,43.38,0,0,1-8.27-2.7,13.47,13.47,0,0,1-5.28-4.22,11,11,0,0,1-2-6.64,11.45,11.45,0,0,1,2.06-6.72,13,13,0,0,1,6-4.51,24.52,24.52,0,0,1,9.19-1.58,22.73,22.73,0,0,1,7.3,1.05A15.29,15.29,0,0,1,318.28,34a11.51,11.51,0,0,1,3,3.64,8.33,8.33,0,0,1,.94,3.72,4.39,4.39,0,0,1-1.17,3,3.73,3.73,0,0,1-2.92,1.33,3.36,3.36,0,0,1-2.42-.8,10.31,10.31,0,0,1-1.8-2.61,11.62,11.62,0,0,0-3-4c-1.17-1-3-1.46-5.63-1.46a9.75,9.75,0,0,0-5.79,1.58,4.6,4.6,0,0,0-2.21,3.8,3.83,3.83,0,0,0,.75,2.37,6.27,6.27,0,0,0,2.07,1.72,13.8,13.8,0,0,0,2.65,1.13c.9.27,2.38.66,4.44,1.18q3.87.91,7,2a21.46,21.46,0,0,1,5.34,2.66,11,11,0,0,1,3.44,4A12.73,12.73,0,0,1,324.18,63Z" transform="translate(0.26 -4.21)"/><path class="cls-1" d="M361.37,71.53l-2.19-5.75H340.56l-2.19,5.87a20.53,20.53,0,0,1-2.19,4.64,3.47,3.47,0,0,1-3,1.2,4.32,4.32,0,0,1-3.09-1.28,3.89,3.89,0,0,1-1.34-2.9,6.43,6.43,0,0,1,.31-1.94c.21-.67.55-1.59,1-2.78l11.72-29.75c.33-.86.73-1.88,1.2-3.08a15.55,15.55,0,0,1,1.5-3,6.06,6.06,0,0,1,2.09-1.93,7.47,7.47,0,0,1,6.44,0,6.28,6.28,0,0,1,2.1,1.89,13.84,13.84,0,0,1,1.34,2.49c.36.88.83,2.07,1.39,3.55l12,29.56a14.81,14.81,0,0,1,1.41,4.9A4.1,4.1,0,0,1,370,76.17a4.4,4.4,0,0,1-3.21,1.32,4.13,4.13,0,0,1-1.87-.39A3.76,3.76,0,0,1,363.56,76,9.21,9.21,0,0,1,362.42,74C362,73.05,361.66,72.23,361.37,71.53ZM343,58.81h13.69l-6.9-18.91Z" transform="translate(0.26 -4.21)"/><path class="cls-1" d="M406.56,57.12h-3.25V71.84A6.13,6.13,0,0,1,402,76.12a4.36,4.36,0,0,1-3.35,1.37,4.26,4.26,0,0,1-3.44-1.43A6.4,6.4,0,0,1,394,71.84V36.59a6,6,0,0,1,1.34-4.35,6,6,0,0,1,4.34-1.34h15.1a45.09,45.09,0,0,1,5.34.27,13.28,13.28,0,0,1,4,1.07,11.53,11.53,0,0,1,3.81,2.6,11.19,11.19,0,0,1,2.52,3.92,13.14,13.14,0,0,1,.86,4.73,11.47,11.47,0,0,1-2.89,8.19q-2.9,3.06-8.77,4.35a16.77,16.77,0,0,1,4.72,3.87,40.07,40.07,0,0,1,4,5.45,42.16,42.16,0,0,1,2.75,5.22,10.4,10.4,0,0,1,1,3.21,3.22,3.22,0,0,1-.58,1.79A3.93,3.93,0,0,1,430,77a5,5,0,0,1-2.31.51,4.47,4.47,0,0,1-2.62-.73,7,7,0,0,1-1.83-1.86c-.51-.75-1.2-1.85-2.08-3.31l-3.72-6.19a33.45,33.45,0,0,0-3.58-5.19,8.8,8.8,0,0,0-3.2-2.43A10.94,10.94,0,0,0,406.56,57.12Zm5.31-19.25h-8.56V50.46h8.31a23,23,0,0,0,5.62-.58,6.61,6.61,0,0,0,3.49-2,5.69,5.69,0,0,0,1.2-3.83,5.89,5.89,0,0,0-1-3.36,5.83,5.83,0,0,0-2.68-2.17C417.19,38.1,415.06,37.87,411.87,37.87Z" transform="translate(0.26 -4.21)"/><path class="cls-1" d="M470.31,38.06H449.4V49.31h19.25a4.55,4.55,0,0,1,3.17.95,3.24,3.24,0,0,1,1.05,2.52,3.33,3.33,0,0,1-1,2.54,4.47,4.47,0,0,1-3.19,1H449.4v13H471a4.76,4.76,0,0,1,3.29,1,3.5,3.5,0,0,1,1.11,2.71,3.42,3.42,0,0,1-1.11,2.64,4.76,4.76,0,0,1-3.29,1H445.81c-2,0-3.48-.44-4.36-1.34A6,6,0,0,1,440.12,71V36.59a7.84,7.84,0,0,1,.59-3.27,3.7,3.7,0,0,1,1.86-1.84,7.76,7.76,0,0,1,3.24-.58h24.5a4.77,4.77,0,0,1,3.29,1,3.66,3.66,0,0,1,0,5.19A4.72,4.72,0,0,1,470.31,38.06Z" transform="translate(0.26 -4.21)"/><path class="cls-1" d="M488.56,30.9h12.09a32.22,32.22,0,0,1,8.09.88,14.77,14.77,0,0,1,6.13,3.28Q522,41.18,522,53.68a36.46,36.46,0,0,1-.72,7.53,22.23,22.23,0,0,1-2.22,6.14,18.7,18.7,0,0,1-3.85,4.89,15.83,15.83,0,0,1-4,2.66,18.06,18.06,0,0,1-4.7,1.41,36,36,0,0,1-5.67.4h-12.1a7.6,7.6,0,0,1-3.81-.76,3.57,3.57,0,0,1-1.67-2.16,13.74,13.74,0,0,1-.39-3.61V36.59a6,6,0,0,1,1.34-4.35A6,6,0,0,1,488.56,30.9Zm3.59,7.34v31.1h7c1.54,0,2.75,0,3.63-.13a11.4,11.4,0,0,0,2.72-.62A7.39,7.39,0,0,0,508,67.18q4.67-3.93,4.66-13.56,0-6.78-2.05-10.16a9.05,9.05,0,0,0-5-4.29,24.71,24.71,0,0,0-7.25-.93Z" transform="translate(0.26 -4.21)"/><path class="cls-1" d="M550.34,30.12A24.4,24.4,0,0,1,562.57,33a18.76,18.76,0,0,1,7.74,8.22,28,28,0,0,1,2.62,12.51,30.57,30.57,0,0,1-1.44,9.66,20.64,20.64,0,0,1-4.31,7.53,18.88,18.88,0,0,1-7.06,4.88,25.6,25.6,0,0,1-9.59,1.68,25.2,25.2,0,0,1-9.63-1.73,19.15,19.15,0,0,1-7.09-4.89,20.87,20.87,0,0,1-4.3-7.59,30.66,30.66,0,0,1-1.45-9.6A29.66,29.66,0,0,1,529.57,44a21,21,0,0,1,4.39-7.5,19,19,0,0,1,7-4.73A25.31,25.31,0,0,1,550.34,30.12Zm13.19,23.56A21.57,21.57,0,0,0,561.9,45a12.16,12.16,0,0,0-4.64-5.58,12.76,12.76,0,0,0-6.92-1.89,12.47,12.47,0,0,0-5.14,1,11.26,11.26,0,0,0-4.07,3.05,14.45,14.45,0,0,0-2.68,5.11,22.94,22.94,0,0,0-1,7,23.48,23.48,0,0,0,1,7.06A14.37,14.37,0,0,0,541.23,66a11.8,11.8,0,0,0,4.12,3.11A13,13,0,0,0,557,68.34a12.34,12.34,0,0,0,4.75-5.5A21.22,21.22,0,0,0,563.53,53.68Z" transform="translate(0.26 -4.21)"/><path class="cls-1" d="M593,35.68l17.85,27V35.43a6,6,0,0,1,1.14-4A3.83,3.83,0,0,1,615,30.12a4,4,0,0,1,3.15,1.33,5.91,5.91,0,0,1,1.16,4v36q0,6-5,6a6.81,6.81,0,0,1-2.25-.35A5.82,5.82,0,0,1,610.21,76a11.48,11.48,0,0,1-1.62-1.82c-.5-.7-1-1.42-1.5-2.14L589.68,45.34V72.18a5.68,5.68,0,0,1-1.22,4,4.34,4.34,0,0,1-6.28,0,5.87,5.87,0,0,1-1.19-4V36.84a10.06,10.06,0,0,1,.5-3.53,5.08,5.08,0,0,1,2-2.3,5.41,5.41,0,0,1,3-.89,5,5,0,0,1,2.14.41,4.93,4.93,0,0,1,1.56,1.09,11.27,11.27,0,0,1,1.38,1.78Z" transform="translate(0.26 -4.21)"/><path class="cls-1" d="M635.24,30.9h12.1a32.27,32.27,0,0,1,8.09.88,14.83,14.83,0,0,1,6.13,3.28q7.16,6.12,7.15,18.62a36.46,36.46,0,0,1-.72,7.53,22.22,22.22,0,0,1-2.21,6.14,18.91,18.91,0,0,1-3.85,4.89,15.83,15.83,0,0,1-4,2.66,18.18,18.18,0,0,1-4.7,1.41,36,36,0,0,1-5.67.4h-12.1a7.55,7.55,0,0,1-3.81-.76A3.53,3.53,0,0,1,630,73.79a13.74,13.74,0,0,1-.39-3.61V36.59a6,6,0,0,1,1.34-4.35A6,6,0,0,1,635.24,30.9Zm3.6,7.34v31.1h7c1.54,0,2.75,0,3.62-.13a11.19,11.19,0,0,0,2.72-.62,7.44,7.44,0,0,0,2.44-1.41q4.65-3.93,4.66-13.56,0-6.78-2-10.16a9.1,9.1,0,0,0-5-4.29,24.66,24.66,0,0,0-7.25-.93Z" transform="translate(0.26 -4.21)"/><path class="cls-1" d="M703.74,71.53l-2.18-5.75H682.93l-2.19,5.87a20.62,20.62,0,0,1-2.18,4.64,3.5,3.5,0,0,1-3,1.2,4.34,4.34,0,0,1-3.1-1.28,3.93,3.93,0,0,1-1.34-2.9,6.43,6.43,0,0,1,.31-1.94c.21-.67.55-1.59,1-2.78l11.72-29.75,1.21-3.08a14.47,14.47,0,0,1,1.5-3A6,6,0,0,1,689,30.85a6.39,6.39,0,0,1,3.2-.73,6.52,6.52,0,0,1,3.24.73,6.25,6.25,0,0,1,2.09,1.89,13.24,13.24,0,0,1,1.34,2.49c.37.88.83,2.07,1.4,3.55l12,29.56a14.81,14.81,0,0,1,1.41,4.9,4.06,4.06,0,0,1-1.33,2.93,4.36,4.36,0,0,1-3.2,1.32,4.18,4.18,0,0,1-1.88-.39A3.86,3.86,0,0,1,705.93,76,10.09,10.09,0,0,1,704.79,74C704.38,73.05,704,72.23,703.74,71.53ZM685.37,58.81h13.69L692.15,39.9Z" transform="translate(0.26 -4.21)"/><path class="cls-1" d="M210,110.63a6.78,6.78,0,0,1,2.59,5.63c0,.73-.14,3.35-.42,7.88s-.41,7.16-.41,7.93a3,3,0,0,0,.48,2,2.13,2.13,0,0,0,1.66.55,8.33,8.33,0,0,0,2.35-.39l.56.45-.56,2.88a10.34,10.34,0,0,1-3.94,1.28,5.51,5.51,0,0,1-3.42-1.41,4.61,4.61,0,0,1-1.35-3.32h-.48a21.38,21.38,0,0,1-7.4,4.8,11,11,0,0,1-7.22-2.15,7.18,7.18,0,0,1-2.59-5.85,6.14,6.14,0,0,1,1.62-4.48,9.43,9.43,0,0,1,4.81-2.37l11.19-2.43.07-4.16a5,5,0,0,0-1.41-3.84,5.66,5.66,0,0,0-4-1.35,11.61,11.61,0,0,0-4.7,1,22.52,22.52,0,0,0-5,3.2l-.56-.26-.69-3.65a20.6,20.6,0,0,1,11.82-4A11.18,11.18,0,0,1,210,110.63Zm-12.62,16.45a4.22,4.22,0,0,0-2,1.06,2.83,2.83,0,0,0-.62,2,4.25,4.25,0,0,0,1.28,3.3,4.82,4.82,0,0,0,3.42,1.18q3.79,0,7.74-4.54l.21-5.25Z" transform="translate(0.26 -4.21)"/><path class="cls-1" d="M240.21,109.06a20.18,20.18,0,0,1,4,1.25l-1,4.42-.62.19a13.7,13.7,0,0,0-7.12-2.18,7.65,7.65,0,0,0-6.36,2.88q-2.28,2.88-2.28,8.07t2.38,8.16a8,8,0,0,0,6.6,3,14.5,14.5,0,0,0,3.91-.57,17.3,17.3,0,0,0,3.83-1.6l.63.32-.63,4.29a22.79,22.79,0,0,1-8.43,1.66q-6.28,0-9.88-4c-2.4-2.67-3.6-6.32-3.6-11s1.26-8.48,3.77-11.23,5.93-4.13,10.26-4.13A21.94,21.94,0,0,1,240.21,109.06Z" transform="translate(0.26 -4.21)"/><path class="cls-1" d="M266.82,109.06a20.18,20.18,0,0,1,4.05,1.25l-1,4.42-.62.19a13.7,13.7,0,0,0-7.12-2.18,7.65,7.65,0,0,0-6.36,2.88q-2.28,2.88-2.28,8.07t2.38,8.16a8,8,0,0,0,6.6,3,14.5,14.5,0,0,0,3.91-.57,17.3,17.3,0,0,0,3.83-1.6l.63.32-.63,4.29a22.79,22.79,0,0,1-8.43,1.66q-6.28,0-9.88-4c-2.4-2.67-3.6-6.32-3.6-11s1.26-8.48,3.77-11.23,5.93-4.13,10.27-4.13A21.92,21.92,0,0,1,266.82,109.06Z" transform="translate(0.26 -4.21)"/><path class="cls-1" d="M280.06,123.56v.13c0,3.58.87,6.33,2.63,8.25s4.23,2.88,7.46,2.88a16.91,16.91,0,0,0,9.26-2.81l.56.38-.83,4.35a23.49,23.49,0,0,1-9.68,2.18q-6.78,0-10.64-4c-2.59-2.67-3.88-6.32-3.88-11s1.29-8.42,3.88-11.2,6.05-4.16,10.43-4.16c3.69,0,6.55,1,8.57,2.92s3,4.64,3,8.09a19,19,0,0,1-.27,3.27l-.69.64Zm3.42-9.31a10.4,10.4,0,0,0-3.08,5.85l15.28-.25.14-.9a7,7,0,0,0-1.69-5,6.48,6.48,0,0,0-4.88-1.76A8.3,8.3,0,0,0,283.48,114.25Z" transform="translate(0.26 -4.21)"/><path class="cls-1" d="M325.68,110.06l-.76,4.16-.83.19a12.77,12.77,0,0,0-6.64-2.11,5.74,5.74,0,0,0-3.8,1.21,3.7,3.7,0,0,0-1.45,2.95,3.24,3.24,0,0,0,1.49,2.78,27.09,27.09,0,0,0,4.59,2.4,42.74,42.74,0,0,1,4.32,2.08,9.26,9.26,0,0,1,2.8,2.46,6,6,0,0,1,1.18,3.78,8,8,0,0,1-1.32,4.42,9.23,9.23,0,0,1-3.87,3.29,13.74,13.74,0,0,1-6.08,1.25,20.74,20.74,0,0,1-9.19-2.11l.69-4.35.62-.39a14.87,14.87,0,0,0,4.18,2.37,12.39,12.39,0,0,0,4.25.83A6.33,6.33,0,0,0,320,134a3.91,3.91,0,0,0,1.59-3.1,3.25,3.25,0,0,0-1.49-2.79,27.09,27.09,0,0,0-4.59-2.4,47.58,47.58,0,0,1-4.36-2.08,8.85,8.85,0,0,1-2.83-2.53,6.5,6.5,0,0,1-1.18-4,7.45,7.45,0,0,1,2.94-6.08,12.37,12.37,0,0,1,8-2.37A21,21,0,0,1,325.68,110.06Z" transform="translate(0.26 -4.21)"/><path class="cls-1" d="M356.82,112.46q3.56,3.87,3.56,10.91,0,7.42-3.74,11.49T346,138.92q-6.5,0-10.06-3.87t-3.56-10.91q0-7.42,3.77-11.49t10.68-4.07Q353.25,108.58,356.82,112.46Zm-17,2.46c-1.52,1.84-2.28,4.52-2.28,8.06q0,6.15,2.24,9.22a7.6,7.6,0,0,0,6.54,3.07,8.19,8.19,0,0,0,6.63-2.69q2.28-2.69,2.28-8.06c0-4-.75-7.13-2.24-9.22a7.54,7.54,0,0,0-6.54-3.13A8.13,8.13,0,0,0,339.85,114.92Z" transform="translate(0.26 -4.21)"/><path class="cls-1" d="M384.57,109.16v4.93l-.62.19a9.92,9.92,0,0,0-2.56-.32,6.14,6.14,0,0,0-4.18,1.7,18.14,18.14,0,0,0-3.77,5.4l-.07,4.48.35,12.87h-5.46L368.6,126l-.27-16.57,5.18-.45-.07,6h.42a12.69,12.69,0,0,1,4.28-4.57,9.11,9.11,0,0,1,4.63-1.38A13.14,13.14,0,0,1,384.57,109.16Z" transform="translate(0.26 -4.21)"/><path class="cls-1" d="M395.7,96.74a2.77,2.77,0,0,1,.83,2.12,3,3,0,0,1-.87,2.24,3.3,3.3,0,0,1-2.38.83,3.12,3.12,0,0,1-2.25-.77,2.89,2.89,0,0,1-.79-2.18,2.86,2.86,0,0,1,.86-2.17,3.27,3.27,0,0,1,2.38-.83A3.15,3.15,0,0,1,395.7,96.74ZM390.93,126l-.21-16.57L396,109l-.14,16.57.14,12.87h-5.39Z" transform="translate(0.26 -4.21)"/><path class="cls-1" d="M429.12,112.46q3.56,3.87,3.55,10.91,0,7.42-3.73,11.49t-10.64,4.06q-6.49,0-10.06-3.87t-3.56-10.91q0-7.42,3.77-11.49t10.68-4.07Q425.55,108.58,429.12,112.46Zm-17,2.46c-1.52,1.84-2.28,4.52-2.28,8.06,0,4.1.74,7.17,2.24,9.22a7.59,7.59,0,0,0,6.53,3.07,8.19,8.19,0,0,0,6.64-2.69q2.28-2.69,2.28-8.06c0-4-.75-7.13-2.25-9.22a7.51,7.51,0,0,0-6.53-3.13A8.13,8.13,0,0,0,412.15,114.92Z" transform="translate(0.26 -4.21)"/><path class="cls-1" d="M457.49,110.06l-.76,4.16-.83.19a12.77,12.77,0,0,0-6.64-2.11,5.74,5.74,0,0,0-3.8,1.21,3.7,3.7,0,0,0-1.45,2.95,3.26,3.26,0,0,0,1.49,2.78,27.09,27.09,0,0,0,4.59,2.4,42.74,42.74,0,0,1,4.32,2.08,9.26,9.26,0,0,1,2.8,2.46,6,6,0,0,1,1.18,3.78,8,8,0,0,1-1.32,4.42,9.23,9.23,0,0,1-3.87,3.29,13.74,13.74,0,0,1-6.08,1.25,20.74,20.74,0,0,1-9.19-2.11l.69-4.35.62-.39a14.87,14.87,0,0,0,4.18,2.37,12.39,12.39,0,0,0,4.25.83,6.33,6.33,0,0,0,4.15-1.31,3.91,3.91,0,0,0,1.59-3.1,3.25,3.25,0,0,0-1.49-2.79,27.09,27.09,0,0,0-4.59-2.4,47.58,47.58,0,0,1-4.36-2.08,8.85,8.85,0,0,1-2.83-2.53,6.5,6.5,0,0,1-1.18-4A7.45,7.45,0,0,1,441.9,111a12.36,12.36,0,0,1,8-2.37A21,21,0,0,1,457.49,110.06Z" transform="translate(0.26 -4.21)"/><path class="cls-1" d="M711.4,128.4c-2.87,7.6-8.51,10.84-16.47,10.76q-16.38-.15-32.76,0c-6.62.07-11.58-2.58-15-8.19-1.79-2.89-1.25-8.81.54-11.75,3.59-5.86,8.91-7.6,15.36-7.54,10.92.1,21.84.07,32.76,0a15.94,15.94,0,0,1,14,7.09,21.56,21.56,0,0,1,1.66,3.65Z" transform="translate(0.26 -4.21)"/><path class="cls-1" d="M509.78,139.13c-5.38,0-10.78-.08-16.16,0a17.39,17.39,0,0,1-13.82-5.73c-3.64-3.9-3.17-12.57.53-16.46,3.93-4.14,8.6-5.32,14-5.28,10.92.08,21.84,0,32.76,0,5.45,0,10.21,1.69,13.28,6.57,5.6,8.88-.44,18.85-9.33,20.44a26.44,26.44,0,0,1-4.44.38C521,139.16,515.39,139.13,509.78,139.13Z" transform="translate(0.26 -4.21)"/><path class="cls-1" d="M594.55,111.71c5.81,0,11.63,0,17.44,0,6.94.07,12.67,3.82,14.31,9.61,2.28,8.06-1.63,14.25-9.07,16.93a16.63,16.63,0,0,1-5.44.83q-17.43.1-34.88,0c-7.37,0-12.84-3.65-14.55-9.82-2.28-8.24,2.28-15.7,10.75-17.05,5.41-.87,11-.41,16.55-.53C591.29,111.68,592.92,111.71,594.55,111.71Z" transform="translate(0.26 -4.21)"/><path class="cls-1" d="M163.22,85.94c-.24-4.25-.3-7.21-.62-10.14a67.57,67.57,0,0,0-1.36-8.25c-5.82-24.77-19.64-43.41-42.41-55.14A81.24,81.24,0,0,0,93.68,4.26c-1.26-.19-1.59.22-1.72,1.31-.28,2.35-.58,4.71-.94,7-.2,1.3.18,1.88,1.56,2.09a70.44,70.44,0,0,1,58,85.31c-4.23,18.59-14.36,33.27-30.57,43.62a71.2,71.2,0,0,1-27.69,10.61,72.31,72.31,0,0,1-23-.11,63.86,63.86,0,0,1-15.72-4.64c-1.28-.57-1.86-.33-2.38.94-.87,2.15-1.82,4.27-2.87,6.33-.66,1.29-.31,1.77,1,2.31a81.9,81.9,0,0,0,38.62,6.31,78.16,78.16,0,0,0,34.17-10.5C148.75,139.18,161.83,115.32,163.22,85.94ZM9,122.05c2.54-1.32,4.82-2.5,7.1-3.7s2.24-.88,1.06-3.36a69.21,69.21,0,0,1-5.58-43.91A66.59,66.59,0,0,1,26.39,39.91C34.5,30.39,44.05,23,55.79,18.67c4.72-1.74,9.72-2.71,14.6-4,.92-.24,1.6-.43,1.43-1.6-.37-2.55-.7-5.11-1-7.67-.13-1-.54-1.35-1.68-1.18C50.92,7,35.61,15.33,22.65,28.12a72.42,72.42,0,0,0-8.06,9.73A79.2,79.2,0,0,0-.09,79.33,80.81,80.81,0,0,0,6,115.51C6.84,117.65,7.9,119.71,9,122.05Zm20.23,10.49a3.78,3.78,0,0,0-.29-.51c-1.8-2.12-3.59-4.25-5.46-6.31a1.33,1.33,0,0,0-1.29-.1c-2.27,1.51-4.49,3.13-6.74,4.67-.73.5-.82,1-.26,1.68q2.74,3.36,5.45,6.75c.53.66,1,.75,1.69.14,2-1.83,4.11-3.6,6.15-5.41A7.86,7.86,0,0,0,29.21,132.54Zm9.11,21c1.83-3,3.52-5.6,5.11-8.31.15-.25-.14-1-.45-1.24-2-1.53-4-3-6.14-4.44a1.47,1.47,0,0,0-1.4.11c-1.87,2.14-3.68,4.34-5.44,6.57a1.19,1.19,0,0,0,.07,1.16C32.73,149.38,35.44,151.36,38.32,153.49Z" transform="translate(0.26 -4.21)"/><path class="cls-1" d="M163.22,85.94c-1.39,29.38-14.47,53.24-41.15,68.95a78.16,78.16,0,0,1-34.17,10.5,81.9,81.9,0,0,1-38.62-6.31c-1.26-.54-1.61-1-1-2.31,1.05-2.06,2-4.18,2.87-6.33.52-1.27,1.1-1.51,2.38-.94a63.86,63.86,0,0,0,15.72,4.64,72.31,72.31,0,0,0,23,.11A71.2,71.2,0,0,0,120,143.64c16.21-10.35,26.34-25,30.57-43.62a70.44,70.44,0,0,0-58-85.31c-1.38-.21-1.76-.79-1.56-2.09.36-2.34.66-4.7.94-7,.13-1.09.46-1.5,1.72-1.31a81.24,81.24,0,0,1,25.15,8.15c22.77,11.73,36.59,30.37,42.41,55.14a67.57,67.57,0,0,1,1.36,8.25C162.92,78.73,163,81.69,163.22,85.94Z" transform="translate(0.26 -4.21)"/><path class="cls-1" d="M9,122.05c-1.08-2.34-2.14-4.4-3-6.54A80.81,80.81,0,0,1-.09,79.33,79.2,79.2,0,0,1,14.59,37.85a72.42,72.42,0,0,1,8.06-9.73C35.61,15.33,50.92,7,69.1,4.25c1.14-.17,1.55.15,1.68,1.18.34,2.56.67,5.12,1,7.67.17,1.17-.51,1.36-1.43,1.6-4.88,1.26-9.88,2.23-14.6,4C44.05,23,34.5,30.39,26.39,39.91A66.59,66.59,0,0,0,11.56,71.08,69.21,69.21,0,0,0,17.14,115c1.18,2.48,1.31,2.11-1.06,3.36S11.52,120.73,9,122.05Z" transform="translate(0.26 -4.21)"/><path class="cls-1" d="M29.21,132.54a7.86,7.86,0,0,1-.75.91c-2,1.81-4.12,3.58-6.15,5.41-.67.61-1.16.52-1.69-.14q-2.72-3.39-5.45-6.75c-.56-.69-.47-1.18.26-1.68,2.25-1.54,4.47-3.16,6.74-4.67a1.33,1.33,0,0,1,1.29.1c1.87,2.06,3.66,4.19,5.46,6.31A3.78,3.78,0,0,1,29.21,132.54Z" transform="translate(0.26 -4.21)"/><path class="cls-1" d="M38.32,153.49c-2.88-2.13-5.59-4.11-8.25-6.15a1.19,1.19,0,0,1-.07-1.16c1.76-2.23,3.57-4.43,5.44-6.57a1.47,1.47,0,0,1,1.4-.11c2.09,1.42,4.13,2.91,6.14,4.44.31.23.6,1,.45,1.24C41.84,147.89,40.15,150.54,38.32,153.49Z" transform="translate(0.26 -4.21)"/></svg>