<svg xmlns="http://www.w3.org/2000/svg" viewBox="0 0 713.91 161.43"><defs><style>.cls-1{fill:none;}</style></defs><title>Recurso 4</title><g id="Capa_2" data-name="Capa 2"><g id="Capa_1-2" data-name="Capa 1"><path class="cls-1" d="M209.1,65.6l-7.34-29.19V68A5.76,5.76,0,0,1,200.58,72a4.31,4.31,0,0,1-6.17,0,5.73,5.73,0,0,1-1.19-4V31.78c0-2,.52-3.35,1.57-4a7.45,7.45,0,0,1,4.22-1h2.87a11.08,11.08,0,0,1,3.77.47,3.11,3.11,0,0,1,1.73,1.69,25.6,25.6,0,0,1,1.28,4l6.66,25.1L222,32.81a25.37,25.37,0,0,1,1.29-4A3.11,3.11,0,0,1,225,27.16a11,11,0,0,1,3.77-.47h2.87a7.47,7.47,0,0,1,4.22,1c1,.69,1.56,2,1.56,4V68A5.76,5.76,0,0,1,236.24,72a4,4,0,0,1-3.14,1.31,3.88,3.88,0,0,1-3-1.31A5.71,5.71,0,0,1,228.88,68V36.41L221.54,65.6c-.48,1.89-.87,3.28-1.18,4.17a5.7,5.7,0,0,1-1.67,2.42,4.85,4.85,0,0,1-3.37,1.09,4.92,4.92,0,0,1-4.5-2.5,10.07,10.07,0,0,1-1-2.42C209.59,67.48,209.35,66.55,209.1,65.6Z"/><path class="cls-1" d="M277.13,33.85H256.22V45.1h19.25a4.58,4.58,0,0,1,3.18.95,3.24,3.24,0,0,1,1,2.51,3.34,3.34,0,0,1-1,2.55,4.47,4.47,0,0,1-3.19,1H256.22v13h21.63a4.77,4.77,0,0,1,3.3,1,3.5,3.5,0,0,1,1.11,2.71,3.42,3.42,0,0,1-1.11,2.64,4.77,4.77,0,0,1-3.3,1H252.63c-2,0-3.47-.45-4.36-1.34a6.05,6.05,0,0,1-1.33-4.35V32.38a7.67,7.67,0,0,1,.6-3.27,3.63,3.63,0,0,1,1.86-1.84,7.71,7.71,0,0,1,3.23-.58h24.5a4.8,4.8,0,0,1,3.3,1,3.66,3.66,0,0,1,0,5.19A4.75,4.75,0,0,1,277.13,33.85Z"/><path class="cls-1" d="M324.44,58.75a13.45,13.45,0,0,1-2.14,7.47A14.21,14.21,0,0,1,316,71.41a23.47,23.47,0,0,1-9.78,1.87,22,22,0,0,1-11.19-2.56A14.85,14.85,0,0,1,290,65.8a11.19,11.19,0,0,1-1.95-6,4,4,0,0,1,4.15-4.09,3.53,3.53,0,0,1,2.49.94,7.41,7.41,0,0,1,1.73,2.78,18.27,18.27,0,0,0,1.89,3.66,7.71,7.71,0,0,0,2.86,2.42,10.67,10.67,0,0,0,4.85,1,10.93,10.93,0,0,0,6.7-1.92,5.78,5.78,0,0,0,2.58-4.8,5.1,5.1,0,0,0-1.39-3.7,9,9,0,0,0-3.6-2.17q-2.21-.75-5.89-1.6a43,43,0,0,1-8.26-2.7,13.44,13.44,0,0,1-5.29-4.22,11,11,0,0,1-1.95-6.64A11.45,11.45,0,0,1,291,32a13,13,0,0,1,6-4.51,24.32,24.32,0,0,1,9.19-1.58,22.73,22.73,0,0,1,7.3,1.05,15.29,15.29,0,0,1,5.11,2.78,11.69,11.69,0,0,1,3,3.64,8.45,8.45,0,0,1,.93,3.72,4.4,4.4,0,0,1-1.17,3,3.71,3.71,0,0,1-2.92,1.33,3.36,3.36,0,0,1-2.42-.8,10.58,10.58,0,0,1-1.8-2.61,11.62,11.62,0,0,0-3-4q-1.75-1.45-5.62-1.46a9.76,9.76,0,0,0-5.8,1.58,4.58,4.58,0,0,0-2.2,3.8,3.83,3.83,0,0,0,.75,2.37A6.22,6.22,0,0,0,300.32,42,13.8,13.8,0,0,0,303,43.1c.9.27,2.38.66,4.44,1.18a71.83,71.83,0,0,1,7,2,21.46,21.46,0,0,1,5.34,2.66,10.9,10.9,0,0,1,3.44,4A12.73,12.73,0,0,1,324.44,58.75Z"/><path class="cls-1" d="M361.63,67.31l-2.19-5.75H340.82l-2.19,5.88a20.09,20.09,0,0,1-2.19,4.64,3.47,3.47,0,0,1-3,1.2A4.34,4.34,0,0,1,330.38,72,3.89,3.89,0,0,1,329,69.1a6.43,6.43,0,0,1,.31-1.94c.21-.67.55-1.6,1-2.78L342.1,34.63c.33-.86.73-1.88,1.2-3.08a16,16,0,0,1,1.5-3,6.07,6.07,0,0,1,2.1-1.92,6.39,6.39,0,0,1,3.2-.73,6.46,6.46,0,0,1,3.23.73,6.19,6.19,0,0,1,2.1,1.89A12.94,12.94,0,0,1,356.77,31c.37.88.83,2.07,1.39,3.54l12,29.57a14.81,14.81,0,0,1,1.41,4.9A4.1,4.1,0,0,1,370.21,72a4.38,4.38,0,0,1-3.2,1.32,4.18,4.18,0,0,1-1.88-.39,3.76,3.76,0,0,1-1.31-1.06,9.45,9.45,0,0,1-1.14-2.06Q362.06,68.38,361.63,67.31ZM343.26,54.6h13.68L350,35.69Z"/><path class="cls-1" d="M406.82,52.91h-3.25V67.63a6.13,6.13,0,0,1-1.28,4.28,4.39,4.39,0,0,1-3.35,1.37,4.26,4.26,0,0,1-3.43-1.43,6.34,6.34,0,0,1-1.22-4.22V32.38A6,6,0,0,1,395.63,28,6,6,0,0,1,400,26.69h15.1a45.09,45.09,0,0,1,5.34.27,13.28,13.28,0,0,1,4,1.07,11.53,11.53,0,0,1,3.81,2.6,11.19,11.19,0,0,1,2.52,3.92,13.14,13.14,0,0,1,.86,4.73,11.43,11.43,0,0,1-2.89,8.19q-2.9,3.06-8.77,4.34a17,17,0,0,1,4.72,3.88,40.07,40.07,0,0,1,4,5.45,42.16,42.16,0,0,1,2.75,5.22,10.4,10.4,0,0,1,1,3.21,3.22,3.22,0,0,1-.58,1.79,4,4,0,0,1-1.57,1.41,5,5,0,0,1-2.32.51,4.49,4.49,0,0,1-2.62-.73,7,7,0,0,1-1.83-1.86c-.51-.75-1.2-1.85-2.08-3.31l-3.72-6.19A33.45,33.45,0,0,0,414.11,56a8.84,8.84,0,0,0-3.2-2.44A11.16,11.16,0,0,0,406.82,52.91Zm5.31-19.25h-8.56V46.25h8.31a23.14,23.14,0,0,0,5.63-.58,6.58,6.58,0,0,0,3.48-2,5.69,5.69,0,0,0,1.2-3.83,5.89,5.89,0,0,0-1-3.36,5.83,5.83,0,0,0-2.68-2.17C417.45,33.89,415.32,33.66,412.13,33.66Z"/><path class="cls-1" d="M470.57,33.85H449.66V45.1h19.25a4.54,4.54,0,0,1,3.17.95,3.22,3.22,0,0,1,1.05,2.51,3.34,3.34,0,0,1-1,2.55,4.47,4.47,0,0,1-3.19,1H449.66v13h21.63a4.76,4.76,0,0,1,3.29,1,3.5,3.5,0,0,1,1.11,2.71,3.42,3.42,0,0,1-1.11,2.64,4.76,4.76,0,0,1-3.29,1H446.07c-2,0-3.48-.45-4.36-1.34a6,6,0,0,1-1.33-4.35V32.38a7.84,7.84,0,0,1,.59-3.27,3.7,3.7,0,0,1,1.86-1.84,7.8,7.8,0,0,1,3.24-.58h24.5a4.76,4.76,0,0,1,3.29,1,3.66,3.66,0,0,1,0,5.19A4.71,4.71,0,0,1,470.57,33.85Z"/><path class="cls-1" d="M488.82,26.69h12.09a32.82,32.82,0,0,1,8.1.87,14.87,14.87,0,0,1,6.12,3.29q7.15,6.12,7.16,18.62a36.46,36.46,0,0,1-.72,7.53,22.23,22.23,0,0,1-2.22,6.14A18.87,18.87,0,0,1,515.51,68a15.88,15.88,0,0,1-4,2.66,18,18,0,0,1-4.7,1.41,36,36,0,0,1-5.67.4H489a7.62,7.62,0,0,1-3.82-.76,3.57,3.57,0,0,1-1.67-2.16,13.74,13.74,0,0,1-.39-3.61V32.38A6,6,0,0,1,484.47,28,6,6,0,0,1,488.82,26.69ZM492.41,34v31.1h7c1.54,0,2.75,0,3.63-.13a11.4,11.4,0,0,0,2.72-.62A7.39,7.39,0,0,0,508.22,63q4.66-3.93,4.66-13.56,0-6.78-2.05-10.16a9.05,9.05,0,0,0-5-4.29,24.71,24.71,0,0,0-7.25-.93Z"/><path class="cls-1" d="M550.6,25.91a24.4,24.4,0,0,1,12.23,2.89A18.76,18.76,0,0,1,570.57,37a28,28,0,0,1,2.62,12.51,30.86,30.86,0,0,1-1.43,9.66,20.8,20.8,0,0,1-4.32,7.53,18.8,18.8,0,0,1-7.06,4.88,25.6,25.6,0,0,1-9.59,1.68,25.2,25.2,0,0,1-9.63-1.73,19.15,19.15,0,0,1-7.09-4.89,20.92,20.92,0,0,1-4.3-7.6,30.55,30.55,0,0,1-1.45-9.59,29.66,29.66,0,0,1,1.51-9.69,21,21,0,0,1,4.39-7.5,19,19,0,0,1,7-4.73A25.31,25.31,0,0,1,550.6,25.91Zm13.19,23.56a21.57,21.57,0,0,0-1.63-8.72,12.11,12.11,0,0,0-4.64-5.58,12.76,12.76,0,0,0-6.92-1.89,12.47,12.47,0,0,0-5.14,1,11.22,11.22,0,0,0-4.06,3.05,14.3,14.3,0,0,0-2.69,5.11,22.94,22.94,0,0,0-1,7,23.48,23.48,0,0,0,1,7.06,14.37,14.37,0,0,0,2.78,5.24,11.8,11.8,0,0,0,4.12,3.11,13,13,0,0,0,11.66-.75,12.34,12.34,0,0,0,4.75-5.5A21.22,21.22,0,0,0,563.79,49.47Z"/><path class="cls-1" d="M593.22,31.47l17.85,27V31.22a6,6,0,0,1,1.14-4,3.83,3.83,0,0,1,3.08-1.33,4,4,0,0,1,3.15,1.33,5.91,5.91,0,0,1,1.16,4v36q0,6-5,6a6.64,6.64,0,0,1-2.25-.36,5.79,5.79,0,0,1-1.88-1.14A11.48,11.48,0,0,1,608.85,70c-.5-.7-1-1.42-1.5-2.15L589.94,41.13V68a5.7,5.7,0,0,1-1.22,4,4.33,4.33,0,0,1-6.28,0,5.83,5.83,0,0,1-1.18-4V32.63a9.83,9.83,0,0,1,.5-3.53,5,5,0,0,1,2-2.3,5.41,5.41,0,0,1,3-.89,5.11,5.11,0,0,1,2.14.4,5.29,5.29,0,0,1,1.57,1.1,11.89,11.89,0,0,1,1.37,1.78Z"/><path class="cls-1" d="M635.51,26.69H647.6a32.79,32.79,0,0,1,8.09.87,15,15,0,0,1,6.13,3.29Q669,37,669,49.47a37.2,37.2,0,0,1-.71,7.53A22.23,22.23,0,0,1,666,63.14,18.7,18.7,0,0,1,662.19,68a15.83,15.83,0,0,1-4,2.66,18.06,18.06,0,0,1-4.7,1.41,36,36,0,0,1-5.67.4h-12.1a7.58,7.58,0,0,1-3.81-.76,3.57,3.57,0,0,1-1.67-2.16,13.74,13.74,0,0,1-.39-3.61V32.38A6,6,0,0,1,631.16,28,6,6,0,0,1,635.51,26.69ZM639.1,34v31.1h7c1.54,0,2.75,0,3.63-.13a11.22,11.22,0,0,0,2.71-.62A7.44,7.44,0,0,0,654.91,63q4.67-3.93,4.66-13.56,0-6.78-2.05-10.16a9.07,9.07,0,0,0-5-4.29,24.66,24.66,0,0,0-7.25-.93Z"/><path class="cls-1" d="M704,67.31l-2.19-5.75H683.19L681,67.44a21,21,0,0,1-2.19,4.64,3.5,3.5,0,0,1-3,1.2A4.3,4.3,0,0,1,672.76,72a3.9,3.9,0,0,1-1.35-2.9,6.76,6.76,0,0,1,.31-1.94c.21-.67.56-1.6,1-2.78l11.71-29.75,1.21-3.08a16,16,0,0,1,1.5-3,6.13,6.13,0,0,1,2.09-1.92,6.42,6.42,0,0,1,3.2-.73,6.5,6.5,0,0,1,3.24.73,6.25,6.25,0,0,1,2.09,1.89A13.55,13.55,0,0,1,699.15,31c.36.88.82,2.07,1.39,3.54l12,29.57a15,15,0,0,1,1.4,4.9A4.06,4.06,0,0,1,712.58,72a4.36,4.36,0,0,1-3.2,1.32,4.13,4.13,0,0,1-1.87-.39,3.8,3.8,0,0,1-1.32-1.06,10.38,10.38,0,0,1-1.14-2.06C704.65,68.84,704.3,68,704,67.31ZM685.63,54.6h13.69l-6.91-18.91Z"/><path class="cls-1" d="M210.27,106.42a6.78,6.78,0,0,1,2.59,5.63c0,.73-.14,3.35-.41,7.88s-.42,7.16-.42,7.93a3,3,0,0,0,.48,2,2.13,2.13,0,0,0,1.66.55,8.33,8.33,0,0,0,2.35-.39l.56.45-.56,2.88a10.34,10.34,0,0,1-3.94,1.28,5.51,5.51,0,0,1-3.42-1.41,4.61,4.61,0,0,1-1.35-3.32h-.48a21.44,21.44,0,0,1-7.39,4.8,11,11,0,0,1-7.23-2.15,7.18,7.18,0,0,1-2.59-5.85,6.17,6.17,0,0,1,1.62-4.49,9.5,9.5,0,0,1,4.81-2.36l11.2-2.44.06-4.16a5.07,5.07,0,0,0-1.41-3.84,5.69,5.69,0,0,0-4.05-1.34,11.61,11.61,0,0,0-4.7,1,23,23,0,0,0-5,3.19l-.55-.25-.7-3.65a20.6,20.6,0,0,1,11.82-4A11.18,11.18,0,0,1,210.27,106.42Zm-12.62,16.45a4.22,4.22,0,0,0-2,1.06,2.88,2.88,0,0,0-.62,2,4.25,4.25,0,0,0,1.28,3.3,4.82,4.82,0,0,0,3.42,1.18q3.79,0,7.74-4.54l.21-5.25Z"/><path class="cls-1" d="M240.47,104.85a20.18,20.18,0,0,1,4.05,1.25l-1,4.42-.62.19a13.7,13.7,0,0,0-7.12-2.18,7.65,7.65,0,0,0-6.36,2.88q-2.28,2.88-2.28,8.07t2.38,8.16a8,8,0,0,0,6.6,3,14.5,14.5,0,0,0,3.91-.57,17.58,17.58,0,0,0,3.84-1.6l.62.32-.62,4.29a23.09,23.09,0,0,1-8.44,1.66q-6.28,0-9.88-4t-3.6-11q0-7.1,3.77-11.23T236,104.37A21.92,21.92,0,0,1,240.47,104.85Z"/><path class="cls-1" d="M267.08,104.85a20,20,0,0,1,4.05,1.25l-1,4.42-.62.19a13.7,13.7,0,0,0-7.12-2.18,7.65,7.65,0,0,0-6.36,2.88q-2.28,2.88-2.28,8.07t2.38,8.16a8,8,0,0,0,6.6,3,14.5,14.5,0,0,0,3.91-.57,17.58,17.58,0,0,0,3.84-1.6l.62.32-.62,4.29a23.09,23.09,0,0,1-8.44,1.66q-6.28,0-9.88-4t-3.6-11q0-7.1,3.77-11.23t10.27-4.13A21.92,21.92,0,0,1,267.08,104.85Z"/><path class="cls-1" d="M280.32,119.35v.13q0,5.37,2.63,8.25t7.46,2.88a16.91,16.91,0,0,0,9.26-2.81l.56.38-.83,4.35a23.45,23.45,0,0,1-9.68,2.18q-6.78,0-10.64-4t-3.87-11q0-7,3.87-11.2t10.43-4.16q5.53,0,8.57,2.91a10.7,10.7,0,0,1,3.05,8.1,19,19,0,0,1-.28,3.27l-.69.63Zm3.42-9.31a10.3,10.3,0,0,0-3.07,5.85l15.27-.25.14-.9a7,7,0,0,0-1.69-5,6.44,6.44,0,0,0-4.88-1.76A8.31,8.31,0,0,0,283.74,110Z"/><path class="cls-1" d="M325.94,105.85l-.76,4.16-.83.19a12.74,12.74,0,0,0-6.64-2.11,5.74,5.74,0,0,0-3.8,1.21,3.73,3.73,0,0,0-1.45,2.94A3.28,3.28,0,0,0,314,115a27.09,27.09,0,0,0,4.59,2.4,42.74,42.74,0,0,1,4.32,2.08,9.26,9.26,0,0,1,2.8,2.46,6,6,0,0,1,1.18,3.78,8,8,0,0,1-1.31,4.41,9.27,9.27,0,0,1-3.88,3.3,13.74,13.74,0,0,1-6.08,1.25,20.77,20.77,0,0,1-9.19-2.11l.69-4.36.62-.38a15,15,0,0,0,4.18,2.37,12.39,12.39,0,0,0,4.25.83,6.33,6.33,0,0,0,4.15-1.31,3.91,3.91,0,0,0,1.59-3.1,3.27,3.27,0,0,0-1.48-2.79,27.67,27.67,0,0,0-4.6-2.4,47.58,47.58,0,0,1-4.36-2.08,8.85,8.85,0,0,1-2.83-2.53,6.52,6.52,0,0,1-1.17-4,7.43,7.43,0,0,1,2.93-6.08,12.37,12.37,0,0,1,8-2.37A21,21,0,0,1,325.94,105.85Z"/><path class="cls-1" d="M357.08,108.24c2.37,2.59,3.56,6.22,3.56,10.92q0,7.43-3.73,11.49t-10.65,4.06q-6.5,0-10.06-3.87t-3.56-10.91q0-7.43,3.77-11.49t10.68-4.07C351.38,104.37,354.7,105.66,357.08,108.24Zm-17,2.47q-2.28,2.75-2.28,8.06,0,6.15,2.24,9.22a7.6,7.6,0,0,0,6.54,3.07,8.22,8.22,0,0,0,6.63-2.69q2.28-2.69,2.28-8.06c0-4-.75-7.13-2.24-9.22a7.54,7.54,0,0,0-6.54-3.13A8.13,8.13,0,0,0,340.11,110.71Z"/><path class="cls-1" d="M384.83,105v4.93l-.62.19a9.92,9.92,0,0,0-2.56-.32,6.19,6.19,0,0,0-4.18,1.69,18.53,18.53,0,0,0-3.77,5.41l-.07,4.48L374,134.2h-5.46l.34-12.42-.27-16.58,5.18-.44-.07,6h.42a12.69,12.69,0,0,1,4.28-4.57,9.11,9.11,0,0,1,4.63-1.38A13,13,0,0,1,384.83,105Z"/><path class="cls-1" d="M396,92.53a2.77,2.77,0,0,1,.83,2.12,3,3,0,0,1-.87,2.24,3.3,3.3,0,0,1-2.38.83,3.12,3.12,0,0,1-2.25-.77,2.89,2.89,0,0,1-.79-2.18,2.86,2.86,0,0,1,.86-2.17,3.28,3.28,0,0,1,2.39-.83A3.14,3.14,0,0,1,396,92.53Zm-4.77,29.25L391,105.2l5.32-.44-.13,16.57.13,12.87h-5.39Z"/><path class="cls-1" d="M429.38,108.24c2.37,2.59,3.56,6.22,3.56,10.92q0,7.43-3.74,11.49t-10.64,4.06q-6.49,0-10.06-3.87t-3.56-10.91q0-7.43,3.77-11.49t10.68-4.07Q425.81,104.37,429.38,108.24Zm-17,2.47q-2.28,2.75-2.28,8.06c0,4.1.74,7.17,2.24,9.22a7.59,7.59,0,0,0,6.53,3.07,8.22,8.22,0,0,0,6.64-2.69q2.28-2.69,2.28-8.06c0-4-.75-7.13-2.25-9.22A7.51,7.51,0,0,0,419,108,8.13,8.13,0,0,0,412.41,110.71Z"/><path class="cls-1" d="M457.75,105.85,457,110l-.83.19a12.74,12.74,0,0,0-6.64-2.11,5.74,5.74,0,0,0-3.8,1.21,3.73,3.73,0,0,0-1.45,2.94,3.28,3.28,0,0,0,1.49,2.79,27.09,27.09,0,0,0,4.59,2.4,42.74,42.74,0,0,1,4.32,2.08,9.26,9.26,0,0,1,2.8,2.46,6,6,0,0,1,1.18,3.78,8,8,0,0,1-1.32,4.41,9.18,9.18,0,0,1-3.87,3.3,13.74,13.74,0,0,1-6.08,1.25,20.77,20.77,0,0,1-9.19-2.11l.69-4.36.62-.38a15,15,0,0,0,4.18,2.37,12.39,12.39,0,0,0,4.25.83,6.33,6.33,0,0,0,4.15-1.31,3.91,3.91,0,0,0,1.59-3.1,3.27,3.27,0,0,0-1.48-2.79,27.67,27.67,0,0,0-4.6-2.4,46,46,0,0,1-4.35-2.08,8.78,8.78,0,0,1-2.84-2.53,6.52,6.52,0,0,1-1.17-4,7.43,7.43,0,0,1,2.93-6.08,12.37,12.37,0,0,1,8-2.37A21,21,0,0,1,457.75,105.85Z"/><path class="cls-1" d="M711.66,124.19c-2.87,7.6-8.51,10.83-16.47,10.76q-16.38-.15-32.76,0c-6.62.06-11.58-2.58-15-8.19-1.79-2.89-1.25-8.81.54-11.75,3.59-5.86,8.91-7.6,15.36-7.55,10.92.11,21.84.07,32.76,0a15.92,15.92,0,0,1,14,7.09,20.8,20.8,0,0,1,1.66,3.65Z"/><path class="cls-1" d="M510.05,134.92c-5.39,0-10.78-.09-16.17,0a17.39,17.39,0,0,1-13.82-5.73c-3.64-3.9-3.17-12.57.53-16.46,3.93-4.14,8.6-5.32,14-5.28,10.92.08,21.84,0,32.76,0,5.45,0,10.22,1.69,13.28,6.56,5.6,8.89-.44,18.86-9.33,20.45a26.44,26.44,0,0,1-4.44.38C521.25,135,515.65,134.92,510.05,134.92Z"/><path class="cls-1" d="M594.81,107.5c5.81,0,11.63,0,17.44,0,6.94.07,12.67,3.82,14.31,9.61,2.28,8.06-1.63,14.25-9.07,16.93a16.9,16.9,0,0,1-5.44.83q-17.43.11-34.88,0c-7.37,0-12.84-3.65-14.54-9.82-2.29-8.24,2.27-15.7,10.75-17,5.4-.87,11-.41,16.54-.53C591.55,107.47,593.18,107.5,594.81,107.5Z"/><path class="cls-1" d="M163.48,81.73c-.24-4.25-.3-7.21-.62-10.14a67.57,67.57,0,0,0-1.36-8.25c-5.82-24.77-19.64-43.41-42.41-55.14A81.24,81.24,0,0,0,93.94.05c-1.26-.19-1.59.22-1.72,1.31-.28,2.35-.58,4.71-.94,7.05-.2,1.3.18,1.88,1.56,2.09a70.44,70.44,0,0,1,58,85.31c-4.23,18.59-14.36,33.27-30.57,43.62A71.22,71.22,0,0,1,92.55,150a72.37,72.37,0,0,1-23-.11,63.86,63.86,0,0,1-15.72-4.64c-1.28-.57-1.86-.33-2.38.94-.87,2.15-1.82,4.27-2.87,6.33-.66,1.29-.31,1.77.95,2.31a81.92,81.92,0,0,0,38.63,6.31,78.16,78.16,0,0,0,34.16-10.5C149,135,162.09,111.11,163.48,81.73ZM9.24,117.84c2.54-1.32,4.82-2.5,7.1-3.7s2.24-.88,1.06-3.36a69.21,69.21,0,0,1-5.58-43.91A66.55,66.55,0,0,1,26.65,35.7c8.11-9.52,17.66-16.93,29.4-21.24,4.72-1.74,9.72-2.71,14.6-4,.92-.24,1.6-.43,1.43-1.6-.37-2.55-.7-5.11-1-7.67C70.91.19,70.5-.13,69.36,0,51.18,2.76,35.88,11.12,22.91,23.91a73.19,73.19,0,0,0-8.06,9.73A79.2,79.2,0,0,0,.17,75.12,80.81,80.81,0,0,0,6.23,111.3C7.1,113.44,8.16,115.5,9.24,117.84Zm20.23,10.49a4.05,4.05,0,0,0-.29-.52c-1.8-2.11-3.59-4.24-5.45-6.3a1.36,1.36,0,0,0-1.3-.1c-2.27,1.51-4.48,3.13-6.74,4.67-.73.5-.82,1-.26,1.68q2.75,3.36,5.45,6.74c.53.67,1,.76,1.69.15,2-1.83,4.11-3.6,6.15-5.41A7.86,7.86,0,0,0,29.47,128.33Zm9.11,20.95c1.83-2.95,3.52-5.61,5.11-8.31.15-.25-.14-1-.45-1.24q-3-2.31-6.14-4.44a1.47,1.47,0,0,0-1.4.11c-1.87,2.13-3.68,4.34-5.44,6.57a1.19,1.19,0,0,0,.07,1.16C33,145.17,35.7,147.15,38.58,149.28Z"/><path class="cls-1" d="M163.48,81.73c-1.39,29.38-14.47,53.24-41.15,69a78.16,78.16,0,0,1-34.16,10.5,81.92,81.92,0,0,1-38.63-6.31c-1.26-.54-1.61-1-.95-2.31,1-2.06,2-4.18,2.87-6.33.52-1.27,1.1-1.51,2.38-.94a63.86,63.86,0,0,0,15.72,4.64,72.37,72.37,0,0,0,23,.11,71.22,71.22,0,0,0,27.68-10.61c16.21-10.35,26.34-25,30.57-43.62a70.44,70.44,0,0,0-58-85.31c-1.38-.21-1.76-.79-1.56-2.09.36-2.34.66-4.7.94-7,.13-1.09.46-1.5,1.72-1.31A81.24,81.24,0,0,1,119.09,8.2c22.77,11.73,36.59,30.37,42.41,55.14a67.57,67.57,0,0,1,1.36,8.25C163.18,74.52,163.24,77.48,163.48,81.73Z"/><path class="cls-1" d="M9.24,117.84c-1.08-2.34-2.14-4.4-3-6.54A80.81,80.81,0,0,1,.17,75.12,79.2,79.2,0,0,1,14.85,33.64a73.19,73.19,0,0,1,8.06-9.73C35.88,11.12,51.18,2.76,69.36,0,70.5-.13,70.91.19,71,1.22c.34,2.56.67,5.12,1,7.67.17,1.17-.51,1.36-1.43,1.6-4.88,1.26-9.88,2.23-14.6,4C44.31,18.77,34.76,26.18,26.65,35.7A66.55,66.55,0,0,0,11.82,66.87a69.21,69.21,0,0,0,5.58,43.91c1.18,2.48,1.31,2.11-1.06,3.36S11.78,116.52,9.24,117.84Z"/><path class="cls-1" d="M29.47,128.33a7.86,7.86,0,0,1-.75.91c-2,1.81-4.12,3.58-6.15,5.41-.67.61-1.16.52-1.69-.15q-2.71-3.37-5.45-6.74c-.56-.69-.47-1.18.26-1.68,2.26-1.54,4.47-3.16,6.74-4.67a1.36,1.36,0,0,1,1.3.1c1.86,2.06,3.65,4.19,5.45,6.3A4.05,4.05,0,0,1,29.47,128.33Z"/><path class="cls-1" d="M38.58,149.28c-2.88-2.13-5.59-4.11-8.25-6.15a1.19,1.19,0,0,1-.07-1.16c1.76-2.23,3.57-4.44,5.44-6.57a1.47,1.47,0,0,1,1.4-.11q3.13,2.13,6.14,4.44c.31.23.6,1,.45,1.24C42.1,143.67,40.41,146.33,38.58,149.28Z"/></g></g></svg>